<svg xmlns="http://www.w3.org/2000/svg" viewBox="0 0 199.6 87.41"><defs><style>.cls-1{fill:#fff;}</style></defs><title>logo_modern</title><g id="Layer_2" data-name="Layer 2"><g id="Layer_1-2" data-name="Layer 1"><polygon class="cls-1" points="171.2 67.33 171.2 60.7 149.5 60.7 149.5 87.41 171.2 87.41 171.2 80.73 157.13 80.73 157.13 77.06 164.04 77.06 164.04 70.48 157.13 70.48 157.13 67.33 171.2 67.33"/><polygon class="cls-1" points="62.99 87.41 84.69 87.41 84.69 80.73 70.62 80.73 70.62 77.06 77.53 77.06 77.53 70.48 70.62 70.48 70.62 67.33 84.69 67.33 84.69 60.7 62.99 60.7 62.99 87.41"/><polygon class="cls-1" points="44.1 76.11 44.05 76.11 37.47 54.02 28.41 54.02 39.71 87.41 48.39 87.41 59.65 54.02 50.97 54.02 44.1 76.11"/><path class="cls-1" d="M0,17.26C0,27.33,7.63,34.53,17.5,34.53c7.59,0,15.22-4.67,17.08-13.21h-9.3A7.72,7.72,0,0,1,17.5,26.8c-5.34,0-8.82-4.05-8.82-9.54s3.48-9.53,8.82-9.53a7.72,7.72,0,0,1,7.78,5.48h9.3C32.72,4.67,25.09,0,17.5,0,7.63,0,0,7.2,0,17.26m39.06,3.39c0,8.06,6.3,13.83,14.07,13.83S67.2,28.71,67.2,20.65A13.7,13.7,0,0,0,53.13,6.77,13.73,13.73,0,0,0,39.06,20.65m20,0c0,3.77-2.33,6.54-6,6.54s-6-2.77-6-6.54,2.34-6.58,6-6.58,6,2.81,6,6.58M91.29,34V27.28h-11v-20H72.69V34Zm4-13.31c0,8.06,6.3,13.83,14.07,13.83s14.07-5.77,14.07-13.83a14.07,14.07,0,0,0-28.14,0m20,0c0,3.77-2.33,6.54-6,6.54s-6-2.77-6-6.54,2.34-6.58,6-6.58,6,2.81,6,6.58m21.13-.9L143,34h9.44V7.25H145V21.42L138.7,7.25H129V34h7.53ZM160.5,34h7.63V7.25H160.5Zm29.38-5.29L191.35,34h8.25L191.45,7.25h-9.68L173.9,34h8.15l1.34-5.29Zm-3.44-12.6h.19l1.67,6.4h-3.48Z"/><path class="cls-1" d="M129.48,80.73H126V67.38h3.53c2.86,0,6,1.67,6,6.67s-3.1,6.68-6,6.68m-.24-20H118.32V87.41h10.92c8.77,0,14.31-5.44,14.31-13.36S138,60.7,129.24,60.7"/><path class="cls-1" d="M101.05,72.43H98.33V67.28h2.72c2.43,0,3,1.24,3,2.58s-.62,2.57-3,2.57m11.16-3.05c0-4.72-4.15-8.68-10.11-8.68H90.7V87.41h7.63V78.82h2l4.44,8.59h8.49L107.63,77.2a8.16,8.16,0,0,0,4.58-7.82"/></g></g></svg>